<?xml version="1.0" standalone="no"?>
<!DOCTYPE svg PUBLIC "-//W3C//DTD SVG 20010904//EN"
 "http://www.w3.org/TR/2001/REC-SVG-20010904/DTD/svg10.dtd">
<svg version="1.0" xmlns="http://www.w3.org/2000/svg"
 width="432.000000pt" height="216.000000pt" viewBox="0 0 432.000000 216.000000"
 preserveAspectRatio="xMidYMid meet">
<metadata>
Created by potrace 1.16, written by Peter Selinger 2001-2019
</metadata>
<g transform="translate(0.000000,216.000000) scale(0.100000,-0.100000)"
fill="#000000" stroke="none">
<path d="M3145 1701 c-53 -24 -115 -83 -115 -109 0 -34 16 -66 71 -143 49 -69
50 -73 33 -86 -47 -34 -54 -44 -54 -81 0 -25 10 -54 29 -83 55 -88 114 -111
167 -65 l28 23 79 -111 c99 -140 119 -161 184 -193 70 -34 142 -30 234 14 76
35 149 100 149 132 0 33 -24 84 -60 124 -40 46 -81 49 -150 10 -49 -27 -49
-27 -70 -8 -12 11 -48 58 -81 104 l-59 85 59 37 c102 64 115 109 56 197 -65
96 -109 103 -205 32 -30 -22 -57 -40 -61 -40 -4 0 -32 36 -63 80 -75 107 -95
116 -171 81z"/>
<path d="M1365 1565 c-25 -24 -30 -53 -26 -135 3 -61 20 -89 60 -100 46 -13
96 -13 144 1 51 14 71 58 65 147 -4 55 -8 68 -32 88 -24 21 -37 24 -107 24
-72 0 -82 -3 -104 -25z"/>
<path d="M2735 1565 c-25 -24 -30 -53 -26 -135 3 -61 20 -89 60 -100 46 -13
96 -13 144 1 51 14 71 58 65 147 -4 55 -8 68 -32 88 -24 21 -37 24 -107 24
-72 0 -82 -3 -104 -25z"/>
<path d="M656 1535 c-142 -39 -293 -161 -354 -285 -45 -91 -65 -196 -58 -295
11 -158 63 -272 171 -380 124 -124 250 -171 430 -162 162 9 288 60 353 145 27
35 27 35 30 236 4 238 -3 274 -58 293 -47 16 -360 17 -395 1 -31 -14 -40 -44
-38 -121 2 -87 15 -97 125 -97 l88 0 0 -80 0 -79 -37 -10 c-55 -16 -143 -13
-196 5 -57 19 -136 92 -167 154 -31 61 -38 161 -15 229 20 62 87 134 153 164
34 15 67 22 117 22 61 0 79 -5 143 -38 91 -47 120 -47 171 -2 76 69 91 143 40
193 -42 41 -132 88 -204 107 -72 18 -231 18 -299 0z"/>
<path d="M1772 1214 c-29 -14 -61 -37 -72 -51 -42 -54 -33 -78 143 -379 199
-340 193 -332 228 -350 40 -20 108 -18 144 6 20 13 78 102 183 282 217 371
218 373 189 425 -25 44 -110 93 -161 93 -46 0 -79 -45 -181 -244 -55 -108
-103 -196 -106 -196 -3 0 -50 86 -105 192 -54 105 -110 204 -122 220 -30 36
-71 37 -140 2z"/>
<path d="M1370 1202 c-33 -26 -36 -68 -30 -420 l5 -314 24 -19 c19 -15 39 -19
105 -19 94 0 120 15 131 72 3 18 5 176 3 351 l-3 319 -28 24 c-25 21 -38 24
-106 24 -61 0 -84 -4 -101 -18z"/>
<path d="M2740 1202 c-33 -26 -36 -68 -30 -420 l5 -314 24 -19 c19 -15 39 -19
105 -19 132 1 136 9 136 277 l0 196 31 -7 c17 -3 50 -6 73 -6 l42 0 64 -130
64 -130 43 0 c24 0 43 2 43 5 0 3 -30 62 -67 132 -63 121 -67 131 -65 192 2
106 -38 151 -135 151 -72 0 -91 8 -98 41 -11 51 -47 69 -135 69 -60 0 -83 -4
-100 -18z"/>
<path d="M3910 884 c-58 -31 -143 -76 -190 -100 -47 -25 -135 -71 -197 -104
-61 -32 -114 -56 -117 -52 -16 15 -3 -36 14 -56 l19 -24 153 78 c84 42 187 96
228 119 41 23 112 61 158 84 67 34 82 45 82 64 0 24 -17 47 -34 46 -6 0 -58
-25 -116 -55z"/>
<path d="M3265 610 c-43 -17 -70 -59 -70 -109 0 -57 24 -97 69 -116 101 -43
204 59 162 159 -25 60 -101 91 -161 66z"/>
</g>
</svg>
